<svg width="10" height="10" viewBox="0 0 10 10" fill="none" xmlns="http://www.w3.org/2000/svg">
<path d="M9.47779 4.73889C9.47779 2.12095 7.35506 0 4.73889 0C2.12095 0 0 2.12095 0 4.73889C0 7.1036 1.73236 9.06432 3.99844 9.41944V6.10902H2.79506V4.73919H3.99844V3.69456C3.99844 2.50717 4.70483 1.85143 5.78767 1.85143C6.30628 1.85143 6.84918 1.94383 6.84918 1.94383V3.1099H6.2506C5.66298 3.1099 5.47934 3.47568 5.47934 3.85035V4.73889H6.7935L6.58232 6.10873H5.47934V9.41914C7.74365 9.06402 9.47779 7.1033 9.47779 4.7386V4.73889Z" fill="white"/>
</svg>
