<?xml version="1.0" encoding="UTF-8"?><svg id="Layer_2" xmlns="http://www.w3.org/2000/svg" viewBox="0 0 467.66 464.11"><path d="m217.33,121.27c-.75,4.14-1.51,8.28-2.26,12.42,5.84,5.22,16.25,13.11,31.25,17.69,24.08,7.36,44.62,1.51,52.33-1.13l1.88-13.18c-7.96,2.31-23.46,5.68-42.54,2.26-20.14-3.61-34.05-12.96-40.66-18.07Z" fill="#fff" stroke-width="0"/><path d="m217.51,121.73c-.61,4.1-1.2,8.05-1.95,12.05l-.16-.46c5.63,4.79,11.85,8.86,18.49,12.1,16.56,8.16,35.69,10.07,53.75,6.66,3.62-.67,7.2-1.54,10.76-2.55,0,0-.51.62-.51.62,0,0,2.15-13.13,2.15-13.14,0,0,.63.55.63.55-7.07,2.06-14.39,3.26-21.74,3.62-21.17,1.09-42.58-5.37-59.69-17.86-.64-.46-1.28-.88-1.73-1.58h0Zm-.36-.93c1.73.81,3.29,2.25,4.9,3.28,16.54,11.33,36.79,17.12,56.82,16.09,7.53-.36,15.02-1.63,22.24-3.79,0,0-.09.76-.09.77,0,0-1.61,13.21-1.61,13.21,0,0-.05.44-.05.44-3.65,1.45-7.41,2.64-11.26,3.48-25.81,5.89-54.2-1.98-73.36-20.22,0,0-.21-.18-.21-.18,0,0,.05-.28.05-.28.76-4.29,1.68-8.62,2.57-12.8h0Z" stroke-width="0"/><path d="m338.18,127.67c-5.99-8.7-18.99-8.34-20.33-8.28-5.06.21-9,1.84-11.29,3.01,5.24-18.56,10.49-37.13,15.74-55.69.84-2.06,2.07-5.88,1.08-10.07-2.98-12.5-23.24-17.35-41.49-21.72-2.3-.55-14.28-3.34-29.92-2.88-13.94.42-18.11,3.03-20.33,6.03-2.58,3.47-2.72,7.7-2.5,10.42-3.6,18.6-7.2,37.21-10.81,55.81-.93-.92-9.32-8.98-20.95-7.13-10.72,1.71-17.93,10.83-19.58,19.2-2.38,12.09,6.91,22.24,12.05,27.86,22.13,24.2,56.32,26.32,71.14,27.03,23.92,1.16,70.56-2.2,78.7-24.39.24-.66,3.96-11.27-1.51-19.2Zm-100.14,1.13c-4.52-2.39-9.04-4.77-13.55-7.16,4.39-22.33,8.78-44.67,13.17-67.01,5.4,2.39,10.8,4.77,16.19,7.16-5.27,22.33-10.54,44.67-15.81,67.01Zm35.76-68.14c.16-1.07,33.92,1.45,38.4-5.93.25-.41,1-1.83,2.26-1.98,2.45-.29,5.97,4.37,5.03,7.03-.83,2.38-5.15,2.86-9.54,3.14-18.79,1.18-36.26-1.49-36.15-2.26Z" stroke-width="0"/><path d="m257.52,170.62c5.36.7,9.03,6.69,6.6,11.75-1.35,3.12-3.75,5.3-6.42,7.11-6.41,4.2-17.11,4.11-22.67-1.44-2.04-2.27-1.73-5.48-.32-7.91,3.02-6.05,10.8-7.13,16.41-3.96,0,0,.02.01.02.01l1.16.88c-1.22,3.52-2.64,7.29-4.02,10.77-.44,1.05-.73,2.15-1.46,3.12l-.96-.28c-.1-1.21.23-2.29.42-3.42.6-3.26,1.31-6.83,2.03-10.04,0,0,.75,2.06.75,2.06-2.69-2.48-7.17-3.25-10.36-1.18-2.02,1.29-3.72,3.95-3.42,6.37.83,3.87,5.77,4.7,9.25,4.81,3.9-.02,7.65-.98,10.7-3.35,2.6-2,5.4-4.75,5.16-8.18-.12-1.92-1.46-4.07-3.34-6.26l.48-.88h0Z" stroke-width="0"/><path d="m231.71,217.95c.26-4.82-.33-9.61-2.16-13.86-3.12-6.43-7.39-12.54-10.76-18.9-2.41-3.78-2.98-8.69.11-12.35,2.55-3,5.65-5.34,9.42-6.59,0,0,.54.84.54.84-.82,1.01-2.76,3.12-3.51,4.11-2.27,2.85-5.44,5.56-4.38,9.16.54,1.97,3.75,7.43,4.7,9.39,5.18,9.63,9.73,16.94,7.02,28.33,0,0-.99-.14-.99-.14h0Z" stroke-width="0"/><path d="m205.67,157.28c-3.12,3.36-5.95,7.23-5.18,11.77.97,2.93,3.24,5.52,4.1,8.6,1.17,3.25,1.67,7.1,1.46,10.49-.07,1.68-.07,3,.21,4.13.75,2.64,2.42,4.47,4.73,6.13,2.48,1.77,5.12,3.65,7.85,5.11,2.88,1.54,6.3,2.92,8.71,5.38,2.53,2.52,4.29,5.64,5.11,8.92,0,0-.92.39-.92.39-1.73-2.73-3.81-5.12-6.29-6.82-2.59-1.84-5.55-2.49-8.56-3.75-3.19-1.31-6.03-3.07-8.93-4.99-1.43-.97-2.96-2.17-4.21-3.76-1.87-2.33-3.05-5.38-3.02-8.37.16-4.01.5-7.67-.64-11.51-.54-2.34-1.54-4.31-2.55-6.56-1.18-2.62-.84-6.05.37-8.52,1.61-3.35,4.3-5.69,7.12-7.44l.63.78h0Z" stroke-width="0"/><path d="m210.1,159.27c.79,9.13,5,17.83,11.57,24.13,0,0-2.09,2.03-2.09,2.03-6.52-7.07-10.41-16.53-10.48-26.11,0,0,1-.05,1-.05h0Z" stroke-width="0"/><path d="m276.15,171.5c-1.31,7.95-4.81,15.68-10.02,21.96-3.52,4.16-8,7.34-12.17,10.64-9.02,7.2-17.78,14.91-25.12,23.83-7.02,9.27-14.66,17.45-9.36,29.52,1.97,4.64,5.35,8.68,9.08,12.12,0,0-.6.8-.6.8-4.65-2.82-8.73-6.63-11.5-11.4-6.63-11.58-1.68-21.61,5.44-31.32,6.07-8.92,14.05-16.36,22.37-23.12,3.61-2.96,9-6.61,12.87-9.29,4.21-2.9,7.71-6.31,10.69-10.46,3.04-4.08,5.41-8.69,7.36-13.55l.96.27h0Z" stroke-width="0"/><path d="m292.2,170.29c-.4,5.59-2.56,11.09-6.31,15.35-2.74,3.15-6,5.01-7.57,8.65-.46,1.05-.82,2.21-.95,3.27-.13,2.45.35,5.92-.91,8.51-2.24,5.72-6.73,10.43-12.63,12.46-2.73.94-5.62.83-8.24,1.36-2.34.44-4.46,1.56-6.67,2.95-2.99,1.86-5.14,4.76-4.94,8.41.02,1.24.16,2.69.04,4.22-.93,11.14-11.72,9.48-14.98,18.84-1.82,4.91-1.32,10.45-.3,15.55,0,0-.97.24-.97.24-1.48-5.31-2.3-11.01-.66-16.45.84-2.76,2.47-5.32,4.63-7.25,4.16-3.54,8.93-5.13,8.98-11.12.03-2.66-.77-5.76.27-8.56.53-1.53,1.3-2.9,2.3-4.11,3.04-3.38,6.82-5.66,11.34-6.91,2.64-.68,5.3-.62,7.69-1.53,2.1-.77,4.09-2.23,5.69-3.95,2.25-2.5,4.3-5.71,4.66-9.07-.07-2.88.47-6.21,2.01-8.71,1.97-3.84,6.24-6.24,9.08-8.86,3.76-3.42,6.29-8.24,7.44-13.43l.99.14h0Z" stroke-width="0"/><path d="m202.25,176.88c-3.19,9.74-5.77,19.58-7.93,29.55-1.76,8.53-4.24,17.02-2.87,25.66,2.57,15.35,13.44,29.64,28.48,34.47,12.69,4.25,31.14,3.13,43.38-2.27,24.35-10.17,31.36-39.96,24.93-63.63-1.34-4.87-3.27-9.6-5.67-14.08,0,0,.87-.5.87-.5,5.39,8.8,8.72,18.97,9.37,29.39,2,29.08-13.32,52.54-42.92,57.45-10.51,1.61-21.34,2.03-31.62-1.28-17.11-5.17-29.39-21.4-31.78-38.84-1.2-9.29,1.74-18.56,4.18-27.29,2.79-9.9,6.27-19.68,10.66-28.99,0,0,.93.37.93.37h0Z" stroke-width="0"/><path d="m235.62,185.74c-.52,7.85-1.02,15.71-2.87,23.39,0,0-.99-.1-.99-.1-.22-3.97.14-7.88.5-11.79.37-3.91.82-7.81,1.43-11.7,0,0,1.94.2,1.94.2h0Z" stroke-width="0"/><path d="m261.22,170.82c5.81,2.26,10.21,9.17,8.29,15.42,0,0-.99-.12-.99-.12-.14-5.83-2.77-11.19-7.76-14.42,0,0,.47-.89.47-.89h0Z" stroke-width="0"/><path d="m194.19,247.37c-5.7,10.7-5.53,23.24.6,33.67,1.92,3.44,4.29,6.69,6.96,9.73,0,0-.82.31-.82.31-.02-2.44.41-4.89,1.15-7.25,2.24-7.02,7.52-13.34,14.5-15.96,0,0,.5.87.5.87-7.28,5.79-12.77,13.43-15.16,22.48,0,0-.21.72-.21.72l-.61-.41c-10.52-7.14-16.83-20.93-13.48-33.5,1.06-4.15,3.04-8.02,5.73-11.21l.83.55h0Z" stroke-width="0"/><path d="m236.88,271.38c5.75,8.8,7.44,20.09,5.14,30.3,0,.01-.69-.55-.69-.54,3.88-2.2,7.55-4.65,10.89-7.46,6.68-5.59,11.99-12.67,15.75-20.52,1.89-3.94,3.42-8.07,4.74-12.35,0,0,.98.18.98.18-.91,13.76-8.44,27.01-19.71,34.98-3.98,2.83-8.39,4.99-13.03,6.33,0,0,.09-.78.09-.78.93-7.58.17-15.29-2.27-22.52-.77-2.42-1.73-4.77-2.76-7.12,0,0,.88-.48.88-.48h0Z" stroke-width="0"/><path d="m216.83,268.3c-3.58,1.34-3.56,9.15-3.55,9.86.06,4.71,2.02,8.22,3.11,9.88,1.26-.45,3.89-1.2,7.2-.71,3.54.53,5.96,2.2,7.01,3.03,1.2-1.83,2.84-4.77,3.86-8.68.91-3.47,2.13-8.12,0-10.08-1.85-1.7-4.13.53-9.32-.51-4.91-.98-6.1-3.62-8.31-2.8Z" stroke-width="0"/><path d="m217.01,268.77c-1.52.6-2.21,2.41-2.64,3.93-1.33,5.09-.63,10.7,2.33,15.14,0,0-.44-.15-.44-.15,4.86-1.74,10.54-.88,14.61,2.34,0,0-.63.1-.63.1,2.57-3.97,4.12-8.64,4.68-13.31.11-1.82.08-3.76-1.32-4.67-.9-.38-1.72-.02-2.84.11-3.31.65-6.97-.12-9.83-1.9-1.42-.82-2.71-2.08-3.93-1.59h0Zm-.35-.94c1.74-.72,3.42.69,4.92,1.27,2.83,1.23,5.83,1.39,8.87.98.78-.1,1.6-.24,2.65-.14,3.3.47,3.6,4.47,2.99,7.03-.95,4.81-2.36,9.55-5.13,13.63,0,0-.26.4-.26.4l-.37-.29c-3.8-3.07-9.22-4.03-13.82-2.32,0,0-.27.1-.27.1l-.16-.25c-3.13-4.56-3.95-10.42-2.62-15.78.49-1.81,1.27-3.84,3.19-4.63h0Z" stroke-width="0"/><path d="m216.11,290.3c-5.55,18.64-11.11,37.27-16.66,55.91l14.68,29.36c7.62-8.56,15.25-17.13,22.87-25.69-2.4-19.48-4.8-38.96-7.2-58.45-1.61-.74-4.31-1.73-7.76-1.84-2.44-.08-4.48.31-5.93.71Z" stroke-width="0"/><path d="m216.81,289.37c-5.2,19.23-10.63,38.14-16.25,57.17,0,0-.07-.85-.07-.85,3.62,7.04,7.32,14.98,10.64,22.21,1.16,2.48,2.29,4.97,3.49,7.43,0,0-.89-.12-.89-.12,6.8-7.22,15.85-18.47,22.28-26.22,0,0-.33,1.04-.33,1.04-1.28-8.4-2.67-20.65-3.72-29.21-1.1-9.75-2.24-19.5-3.28-29.26,0,0,.64.88.64.88-3.75-1.8-8.1-2.33-12.17-1.46,0,0-.41.09-.41.09-.24.06-.02.01-.01-.13l.06-1.58h0Zm-.88.05c4.9-1.48,10.28-.93,14.9,1.24,1.4,9.93,2.69,19.88,4.01,29.82,1.05,8.88,2.78,21.09,3.54,29.88-7.42,7.66-17.53,18.15-24.36,26.18-5.16-9.95-10.95-20.12-15.81-30.23,5.71-18.99,11.59-38.11,17.72-56.88h0Z" stroke-width="0"/><path d="m199.08,182.76c-5.89-14.43-21.78-24.42-37.08-21.59-7.12,1.35-14.27,5.36-18.22,11.48-6.13,10.07-2.62,22.72,1.07,33.15,1.64,4.02,1.93,8.61,1.11,12.88-.94,4.13-2.46,7.75-3.48,11.76-1.67,7.49-4.18,15.28-2.96,22.99,2.17,13.18,9.03,18.9,21.69,22.25,0,0-.46.35-.46.35,3.36-11.13,11.45-20.75,21.92-25.84,3.48-1.7,7.2-2.9,11.01-3.59l.18.98c-3.72.67-7.35,1.84-10.75,3.5-10.29,5-18.22,14.49-21.46,25.44-8.73,3.47-18.64-2.18-22.92-10.02-2.23-3.87-3.42-8.17-3.97-12.38-1.08-8.5,1.98-16.66,4.2-24.7,1.61-5.66,4.68-11,4.06-16.99-.21-4-2.4-7.39-3.5-11.21-1.9-6.03-3.72-11.97-3.6-18.49-.29-19.07,21.29-30.28,38.21-25.58,12.35,3.02,22.76,13.16,25.89,25.29,0,0-.95.32-.95.32h0Z" stroke-width="0"/><path d="m189.77,236.58c-8.16,3.33-19.87,7.12-33.43,8.16-11.38.87-18.69-.6-21.08-1.13-4.11-.91-7.44-2.08-9.79-3.01.88-1.47,1.84-3.36,2.64-5.65.85-2.43,1.28-4.63,1.51-6.4,7.18,1.91,17.57,3.84,30.12,3.39,12.09-.44,22-2.94,28.9-5.26.38,3.3.76,6.6,1.14,9.9Z" stroke="#000" stroke-miterlimit="10"/><path d="m96.37,194.01c-1.76-9.52-.6-20.56,4.88-28.75,3.32-4.39,12.1-11.04,16.56-4.8,2,3.38,2.39,7.7,1.24,11.39-2.58,6.82-1.51,14.2.79,20.93.82,2.28,2.29,4.34,3,6.72,3.39,10.23,1.88,21.05-8.39,26.46,0,0-.02,0-.02,0,0,0,.18-.68.18-.68,2.61,4.26,1.15,10.18-3.01,12.86-4.01,2.86-9.46,2.39-13.69.31,0,0,.44-.9.44-.9,3.91,1.93,9,2.39,12.67-.23,3.95-2.57,5.1-8.04,2.5-11.96,0,0,.41-.28.41-.28h.02c3.99-2.62,7.1-6.53,8.11-11.08,1.19-5.59.08-11.91-2.45-17.14-1.84-3.27-2.7-7.03-3.42-10.69-1.02-4.9-.59-10.18,1.1-14.88.78-2.27.68-4.48.22-6.79-1.58-9.53-11.6-2.89-15.01,1.66-2.83,3.81-4.14,8.66-5.1,13.25-.87,4.73-.84,9.62-.04,14.39,0,0-.98.18-.98.18h0Z" stroke-width="0"/><path d="m75.33,194.1c-2.06,2.44-1.56,6.99.77,9.31,2.7,2.58,6.61,4.43,10.11,5.86,5.62,2.1,11.78,2.32,17.68,1.53,2.59-.43,6.06-.8,6.84-3.76.65-2.57-.27-5.65-2.54-7.17-6.8-3.92-14.66-5.99-22.5-6.74-1.99-.21-3.98-.45-5.87-.45-1.68,0-3.39.19-4.49,1.43h0Zm-2.12-1.87c3.3-3.52,8.66-2.19,12.8-1.78,8.18.97,16.26,3.5,23.25,7.95,2.72,1.98,3.83,5.86,2.85,9.06-1,3.46-5.02,4.14-8.08,4.49-6.1.69-12.34.32-18.19-1.64-3.96-1.45-7.81-2.66-11.21-5.36-3.58-2.99-4.51-9.01-1.42-12.72h0Z" stroke-width="0"/><path d="m80.92,208.09c-2.4.21-4.75,1.32-5.56,3.29-1.17,2.91.42,7.01,2.85,9.11,2.84,2.3,6.52,2.96,10.15,3.41,4.6.26,10.29,1.73,14.32-.76,3.89-3.16,2.13-9.57-2.62-10.96,0,0,.28-.96.28-.96,5.84,1.3,8.13,9.38,3.35,13.25-2.29,1.71-5.15,1.91-7.84,1.93-6.47-.38-13.56-.17-18.99-4.29-4.27-3.36-6.04-11.99.03-14.43,1.32-.51,2.69-.7,4.04-.59v1h0Z" stroke-width="0"/><path d="m79.27,222.8c-7.04,3.79-4.21,12.76,3.04,14.01,5.84.75,14.89,2.75,19.41-1.95,3.8-4.02,1.3-8.23-3.71-8.97,0,0,.12-.99.12-.99,11.22,1.47,7.27,13.34-1.84,14.46-2.45.4-4.88.3-7.25.13-4.67-.4-10.49-.53-13.53-4.79-3.5-4.41-1.88-10.63,3.34-12.79,0,0,.42.91.42.91h0Z" stroke-width="0"/><path d="m121.62,217.15c3.17-1.46,7.99-.95,9.39,2.79.86,2.32.46,4.49.26,6.75-.3,3.11-.97,6.34-2.09,9.24-.74,2.02-1.47,4.27-3.14,5.83-5.27,5.16-14.95,4.78-14.99-4.13,0,0,1-.07,1-.07.44,4.2,3.51,6.62,7.6,5.31,1.76-.52,3.45-1.52,4.67-2.8,1.3-1.34,1.73-3.23,2.36-5,.65-1.9,1.11-3.78,1.41-5.72.27-2.71,1-5.82.27-8.38-1.04-2.5-3.82-2.62-6.55-2.83,0,0-.19-.98-.19-.98h0Z" stroke-width="0"/><path d="m179.23,131.09c-9.02,1.81-17.46,8.14-18.58,17.75-.41,3.15-.03,6.5,1.08,9.76,0,0-.88.48-.88.48-2.25-2.85-3.62-6.49-3.92-10.32-1.02-11.99,9.92-23.41,22.03-22.39,0,0,.26,4.72.26,4.72h0Z" stroke-width="0"/><path d="m161.7,276.39c-6.72,20.26,2.67,41.32,22.77,48.83,6.25,2.33,13.15,3.07,19.97,2.25l.2.98c-6.8,1.93-14.23,1.8-21.17-.25-17.79-5.18-30.46-23.69-26.4-42.21.71-3.52,1.93-6.93,3.72-10l.91.41h0Z" stroke-width="0"/><path d="m234.54,327.25c16.82,9.91,41.05,6.11,51.56-11.01,5.69-9.13,6.14-20.44,4.05-30.82-1.91-9.93-7.22-19.13-14.54-26.42,0,0,.66-.75.66-.75,16.71,12.99,24.16,38.96,14.23,58.26-7.62,14.87-26.17,22.08-42.08,18.29-5.25-1.24-10.22-3.5-14.44-6.72,0,0,.55-.83.55-.83h0Z" stroke-width="0"/><path d="m286.03,192.91c5.12-9.96,15.23-17.28,26.35-19,15-2.99,28.9,4.75,33.18,19.71,2.35,7.9-.55,13.26-3.44,20.2-1.51,3.86-2.74,7.83-3.69,11.89-2.33,10.1-3.19,20.71-2.66,31.14.28,4.3,1.17,8.84.4,13.24-2.14,13.77-9.82,25.77-23.75,29.72-6.33,1.78-13.06,1.94-19.48.72,0,0,.16-.99.16-.99,6.27.71,12.68.12,18.62-1.91,12.47-4.3,18.95-15.47,20.42-28.08.57-6.25-1.37-12.59-1.19-18.92-.45-15.26,2.28-30.76,8.44-44.76,3.74-8.04-.66-17.17-7.04-22.42-5.34-4.15-12.49-5.13-19.17-4.25-6.06.65-11.76,2.65-16.9,6.08-3.43,2.26-6.57,5.06-9.43,8.21l-.83-.57h0Z" stroke-width="0"/><path d="m291.56,223.31c6.45-1.53,15.19-2.73,25.35-1.62,13.32,1.45,22.32,6.1,29.08,9.6,0,0,4.68,2.42,13.55,11.29.55.55,1.57,1.6,1.69,3.11.27,3.32-3.98,7.53-7.91,7.62-4.61.11-5.98-5.54-13.05-10.93-4.69-3.57-8.96-4.8-15.18-6.58-14.63-4.19-28.08-2.19-35.4-.53.62-3.99,1.24-7.98,1.86-11.97Z" stroke="#000" stroke-miterlimit="10"/><path d="m333.67,180.78c3.45-5.47,4.45-12.44,1.52-18.25-.85-1.82-2.03-3.51-3.34-5.08,0,0,3.24-3.37,3.24-3.37,8.52,6.95,7.99,20.85-.68,27.38,0,0-.73-.68-.73-.68h0Z" stroke-width="0"/><path d="m344.65,250.99c-2.33,7.66,3.64,14.43,11.46,13.58,7.15-1.32,12.89-7.92,14.83-14.72.95-3.41.57-7.32-2.04-9.87-2.48-2.43-6.14-3.85-9.64-3.25-7.01,1.19-12.83,7.48-14.6,14.26h0Zm-1.83-.43c2.04-7.5,8.34-14.28,16.2-15.48,3.99-.59,8.1,1.02,10.92,3.89,4.44,4.52,2.92,11.68-.17,16.5-3.04,4.85-7.65,9.16-13.52,10.11-8.58.93-15.96-6.34-13.43-15.02h0Z" stroke-width="0"/><path d="m393.43,253.03c12.61-18.54,25.22-37.08,37.84-55.62-1.04-.75-2.07-1.51-3.11-2.26-14.02,17.98-28.05,35.95-42.07,53.93,1.13.44,2.37,1,3.67,1.69,1.4.75,2.62,1.52,3.67,2.26Z" stroke="#000" stroke-miterlimit="10"/><path d="m372.02,246.03c10.13-1.57,20.82,3.53,26.29,12.2,3.11,4.64,6.28,10.42,4.36,16.19-.87,2.3-2.71,4.06-4.76,5.03l-.5-.86c1.73-1.19,3.11-2.81,3.6-4.72,1.31-6.22-3.06-11.94-6.6-16.79-2.64-3.23-6.07-5.81-9.91-7.55-3.84-1.72-8.1-2.58-12.4-2.49l-.08-1h0Z" stroke-width="0"/><path d="m353.25,292.99c-4.7-1.69-10.17-5.2-10.5-10.78.24-3.77,2.04-7.08,3.52-10.44,1.24-2.6,2.64-5.11,4.22-7.51l.87.5c-1.27,2.53-2.48,5.09-3.57,7.68-1.19,3.19-2.85,6.39-3.13,9.73.41,4.83,5.03,7.73,9,9.9,0,0-.4.92-.4.92h0Z" stroke-width="0"/><path d="m354.18,283.52c6.44-4.04,19.98,2.01,14.1,10.36-.71.89-1.52,1.64-2.5,2.18,0,0,.07-.74.07-.74,2.05,1.68,4.39,2.84,6.85,3.19,9.38,1.88,12.87-7.46,9.72-15,6.1,8.06.77,19.85-10.12,17.18-3.11-.65-5.8-2.56-7.47-5.09,0,0,.34-.35.34-.35,2.59-2.79,3.53-6.6.05-8.98-3.16-2.36-7.05-3.3-11.05-2.76h0Z" stroke-width="0"/><path d="m392.3,272.51c8.81,3.39,10.06,17.53.11,20.39-2.86.87-5.95.58-8.49-.66l.31-.95c2.58.46,5.17.31,7.44-.55,8.04-2.9,6.62-13.75.63-18.23h0Z" stroke-width="0"/><path d="m360.07,283.01l-22.55,32.42c-1-.33-3.26-.91-5.65,0-4.16,1.59-6.53,6.88-5.22,8.75.06.09.13.15.21.23,1.1,1.08,2.8.92,3.61.9,2.89-.06,5.37,1.54,6.49,2.26,2.34,1.5,2.18,2.66,3.53,2.82,2.35.29,5.63-2.88,5.65-6.35.01-2-1.06-3.49-1.55-4.09,6.96-8.09,13.93-16.19,20.89-24.28.23-.18,3.42-2.68,3.11-6.21-.31-3.48-3.91-6.6-8.51-6.45Z" stroke="#000" stroke-miterlimit="10"/><path d="m338.55,329.28c-1.51,1.88-3.56,4.67-5.55,8.31-2.96,5.43-4.77,8.73-4.09,12.85.17,1.02,1.14,6.09,5.65,8.19,2.78,1.3,6.14,1.1,8.61-.28,2.5-1.4,3.91-3.76,6.21-8.47,1.35-2.77,1.95-5.14,4.24-6.21,1.37-.65,3.32-.81,4.8,0,4.15,2.27,2.72,11.12,2.54,12.14-.25,1.46-1.87,9.92-9.6,14.68-8.29,5.11-19.28,3.32-26.26-2.54-8.19-6.88-8.25-17.19-8.19-19.48.17-6.53,2.97-11.4,4.41-13.9,2.61-4.53,5.72-7.58,7.87-9.38,1.2.09,3.02.38,5.04,1.27,2.01.88,3.44,2.02,4.32,2.84Z" stroke="#000" stroke-miterlimit="10"/><path d="m337.52,315.43c.88.13,2.45.48,4.09,1.55,1.56,1.02,2.48,2.23,2.96,2.96" stroke="#000" stroke-miterlimit="10"/><path d="m333.94,180.63c13.39-2.29,27.3-1.75,40.1,3.16,0,0-1.98.16-1.98.16,5.93-4,11.07-9.07,14.83-15.13,1.26-2.02,2.38-4.19,3.75-6.39,2.64-4.42,6.88-8.01,11.19-10.62.5-.32,1.02-.66,1.31-.91.16-.12.15-.21.07.05-.07.26,0,.58.19.78-2.9-.92-6.55-.72-9.8-.88-4.91-.09-9.85-.08-14.78-.07-9.76.21-19.73-.57-29.1,2.61-4.67,1.45-9.18,3.43-13.44,5.86,0,0-.38-.64-.38-.64,4.2-2.64,8.69-4.85,13.39-6.54,9.36-3.65,19.64-3.17,29.5-3.71,4.94-.17,9.87-.34,14.83-.42,3.5.05,7.17-.28,10.66.64,1.22.28,2.62,1.78,2.12,3.24-.54,1.58-1.67,2.03-2.67,2.81-4,2.66-7.52,5.58-9.92,9.74-2.39,4.22-4.8,8.96-8.05,12.74-3.52,4.31-7.83,7.86-12.42,10.9,0,0-.97-.52-.97-.52-8.59-4.81-18.5-7.23-28.36-7.15-3.32.06-6.64.46-9.85,1.27,0,0-.2-.98-.2-.98h0Z" stroke-width="0"/><path d="m138.18,259.29c-16.55.72-26.65,6.65-37.27,19.01-3.35,3.82-6.06,7.66-9.77,11.38-1.94,1.89-4.16,3.56-6.47,4.87-2.05,1.25-4.51,2.14-6.34,3.56-.05.05-.07.08-.06.01,0-.07-.02-.25-.11-.34.62.34,4.55.36,5.72.45,5.06.15,10.15,1.31,14.93,2.82,7.17,2.04,14.84.78,21.47-2.49,0,0,2.36-1.09,2.37-1.1,0,0-1.16,2.4-1.16,2.4-2.1,4.32-4.02,8.75-5.52,13.24-1.58,4.54-2.62,9.2-4.29,13.75-1.67,5.02-4.84,9.97-6.2,14.89-.01.24-.04.41.06.5.06.07.59.06,1.08-.08,2.82-.88,5.43-2.36,8.3-3.4,2.03-.75,4.97-1.43,7.09-1.94,7-1.83,13.92-4.08,20.81-6.3,9.35-2.61,17-9.08,22.55-16.9,0,0,.81.58.81.58-2.87,3.95-6.19,7.59-10.05,10.62-3.8,3.11-8.3,5.35-12.93,6.81-6.9,2.33-13.77,4.69-20.77,6.74-2.35.7-4.72,1.17-6.86,2.06-2.2.89-4.32,1.99-6.59,3-1.57.74-4.45,1.81-5.46-.51-.43-1.19,0-2.35.28-3.38.81-2.41,1.69-4.6,2.37-6.92,2.24-6.93,3.52-14.12,6.55-20.81,2.08-4.48,4.48-8.74,7.14-12.88,0,0,1.2,1.3,1.2,1.3-7.01,3.12-15.14,4.3-22.61,2.12-4.82-1.51-9.54-2.88-14.6-2.83-1.95-.04-3.79.26-5.8.1-.92-.03-1.99-.87-1.74-1.95.25-1.13,1.28-1.81,1.92-2.42,1.45-1.21,2.99-2.36,4.3-3.65,3.71-3.42,5.64-7.51,8.62-11.64,4.69-6.28,10.17-11.96,16.79-16.37,8.71-6.01,20.2-7.66,30.34-5.33,0,0-.08,1-.08,1h0Z" stroke-width="0"/><path d="m112.22,313.61c6.36-19.75,24.32-34.83,44.74-38.12,0,0,.18.98.18.98-19.76,3.75-36.42,18.86-42.65,37.89,0,0-2.27-.76-2.27-.76h0Z" stroke-width="0"/><path d="m180.95,325.55c-1.18,13.47-2.35,26.95-3.53,40.42-.19.68-.61,2.5.28,4.24,1.6,3.1,6.33,3.81,8.75,2.26,2.35-1.5,2.47-5.1,2.54-6.78.32-7.99,1.29-20.61,2.63-37.25-.03,0-5.42-1.46-5.45-1.47-.02,0-5.22-1.41-5.24-1.41Z" stroke="#000" stroke-miterlimit="10"/><path d="m252.01,334.03c4.51,7.14,5.47,12.91,5.48,16.93.01,5.85.67,11.7.41,17.55-.04.8-.13,2.78,1.13,4.24,1.91,2.21,6.34,2.53,8.47.56,1.54-1.43,1.49-3.72,1.41-5.93-.33-9.1-.5-13.65-1.13-17.51-.65-4.03-1.45-9.77-1.96-16.88-1.53.4-3.27.75-5.19.98-3.31.39-6.24.31-8.62.06Z" stroke="#000" stroke-miterlimit="10"/><path d="m266.37,369.86c-4.8,0-9.6.48-14.3,1.4,0,0,.36-.29.36-.29-.58,1.79-1.02,3.69-1.01,5.51-.1,7.5,6.91,5.63,12.17,5.46,3.44-.4,7.87.01,10.67-1.93,2.77-2.27,2.03-6.74.97-9.89,0,0,.39.29.39.29-3.07-.38-6.16-.56-9.26-.56h0Zm0-1c3.22,0,6.44.2,9.64.6,1.53,2.75,2.61,6.18,1.61,9.39-1.88,5.69-9.04,5.19-13.86,5.62-6.58.46-14.72,1.12-14.02-8.06.24-2.18.92-4.19,1.91-6.07,4.85-.96,9.79-1.46,14.73-1.47h0Z" stroke-width="0"/><path d="m181.37,369.01h-9.01s.43-.27.43-.27c-1.15,2.96-2.44,6.47-.86,9.39.23.42.32.45.68.66.68.36,1.64.62,2.57.82,4.85.96,9.89,1.37,14.82,1.68,1.39.04,2.86.12,4.16-.2.36-.12.54-.19.83-.54,2.42-2.68,1.44-7.42.6-10.75,0,0,.41.32.41.32-4.86-.61-9.74-.98-14.63-1.13h0Zm.03-1c5.02.15,10.04.54,15.02,1.17.87,2.02,1.45,4.12,1.69,6.34.27,2.74-.34,6.4-3.29,7.55-3.63.93-7.36.32-11,.1-4.18-.48-8.41-.62-12.29-2.53-2.13-1.32-2.39-4.34-1.98-6.54.42-2.25,1.4-4.22,2.51-6.09,0,0,.29,0,.29,0h9.06Z" stroke-width="0"/><path d="m252.32,381.86c-6.35,6.79-9.52,16.34-7.49,25.49.01.03-.41-.38-.41-.37,14.58,1.75,29.18,3.64,43.71,5.77,14.01,1.6,29.02,5.55,42.12-1.33,5.78-2.85,12.11-7.42,12.35-14.21.07-4.51-2.54-9.58-6.77-11.66-2.99-1.49-6.39-1.73-9.79-1.73-5.23-.13-10.4.91-15.07,3.29-6.43,3.24-11.34,8.73-14.4,15.28,2.61-13.55,15.86-22.99,29.45-22.68,5.41-.18,11.52.82,15.55,4.88,6.65,6.78,7.09,17.18.09,23.88-5.75,5.44-12.93,8.74-20.63,10.13-11.24,1.49-22.45-1.06-33.39-2.8-12.87-2.39-31.03-5.46-43.71-7.9-2.89-9.44.29-20.26,7.69-26.76,0,0,.7.71.7.71h0Z" stroke-width="0"/><path d="m275.96,379.31c5.43-1.04,11.73,1.83,13.99,7.02,0,0-.86.52-.86.52-3.21-4.22-8-5.87-13.11-6.53,0,0-.02-1-.02-1h0Z" stroke-width="0"/><path d="m278.51,393.92c5.59-9.68,19.96-13.66,29.31-7.07,0,0-.38.92-.38.92-10.65-1.82-20.24-.76-28.92,6.14h0Z" stroke-width="0"/><path d="m244.84,407.42s1.31,7.57,1.31,7.57l-.69-.82c7.68,2.35,15.68,3.73,23.75,4.1.02,0-.51.48-.51.48,0,0,.3-7.45.3-7.45l1,.04s-.3,7.45-.3,7.45c0,0-.02.49-.02.49h-.49c-8.16-.07-16.33-1.16-24.25-3.25,0,0-.66-.17-.66-.17,0,0-.03-.64-.03-.64l-.39-7.67.99-.11h0Z" stroke-width="0"/><path d="m171.26,379.46c-6.07,1.24-11.1,4.9-13.98,10.41,0,0-.93-.36-.93-.36,1.59-6.44,8.17-11.35,14.82-11.05,0,0,.08,1,.08,1h0Z" stroke-width="0"/><path d="m140.19,389.84c10.29-4.06,22.71-1.49,31.31,5.21-7.33-3.2-15.17-4.84-23.14-4.66-2.62.01-5.24.22-7.93.42,0,0-.24-.97-.24-.97h0Z" stroke-width="0"/><path d="m153.43,405.5c-4.67-8.2-11.96-14.49-20.71-17.5-5.01-1.78-10.58-2.91-15.71-1.58-3.29.81-6.55,2.62-8.99,4.93-8.4,7.57.7,17.77,8.09,22.06,16.3,9.16,39.49,2.93,56.37-2.57,11-3.03,22.34-4.72,33.71-5.27.05-.02-.45.38-.44.38.72-4.64.14-9.38-1.74-13.53-1.91-4.23-5.06-7.66-8.75-10.48,0,0,.49-.87.49-.87,9.54,3.9,14.21,15.91,10.86,25.46-11.3,1.24-22.56,3.32-33.38,6.77-18.22,6.65-44.13,13.8-61.5,1.66-6.47-4.55-13.2-12.68-9.94-21.06,2.54-5.9,8.45-9.39,14.43-10.9,6.01-1.35,12.04.08,17.49,2.39,8.96,3.61,16.41,11.23,19.73,20.12h0Z" stroke-width="0"/><path d="m181.03,410.05l-.56,8.75s-.47-.53-.47-.53c8.83.45,17.73-1.4,25.58-5.33.02-.01-.47.72-.47.72,0,0,.62-7.61.62-7.61,0,0,1,.04,1,.04l.05,7.64s0,.5,0,.5c-8.32,4.02-17.69,5.76-26.85,5.05,0,0-.5-.03-.5-.03,0,0,.03-.5.03-.5l.56-8.75,1,.06h0Z" stroke-width="0"/><path d="m366.6,268.84c4.53-3.51,11.84.54,11.01,6.21-2.24-4.56-5.94-6.73-11.01-6.21h0Z" stroke-width="0"/><path d="m373.66,263.19c3.63-1.42,8.4,1.64,8.19,5.65-2.23-2.71-4.78-4.69-8.19-5.65h0Z" stroke-width="0"/><path d="m378.46,258.39c4.15-3.31,10.71,1.13,9.04,6.21-1.18-4.09-4.75-6.7-9.04-6.21h0Z" stroke-width="0"/><path d="m338.1,222.39c8.69,2.73,18.26,3.83,26.94.75,4.55-1.44,7.84-4.48,11.86-7.09,4.17-2.68,8.63-4.73,13.16-6.5,4.17-1.79,9.07-2.73,12.99-4.82.38-.23.39-.39.41-.38-.23-.74-1.45-1.45-2.21-1.95-3.98-2.33-27.13-14-31.68-16.41,0,0,1.63-3.12,1.63-3.12s25.49,13.02,25.49,13.02c3.3,1.86,7.29,3.09,9.76,6.29,1.31,1.82.51,4.46-1.28,5.52-4.43,2.57-9.18,3.29-13.76,5.28-6.77,2.53-12.55,5.95-18.3,10.3-10.58,7.17-24.47,6.49-36.14,2.78,0,0,1.15-3.67,1.15-3.67h0Z" stroke-width="0"/><circle cx="236.29" cy="231.37" r="231.37" fill="#fff" stroke-width="0"/><path d="m219.2,114.44c-.75,4.14-1.51,8.28-2.26,12.42,5.84,5.22,16.25,13.11,31.25,17.69,24.08,7.36,44.62,1.51,52.33-1.13l1.88-13.18c-7.96,2.31-23.46,5.68-42.54,2.26-20.14-3.61-34.05-12.96-40.66-18.07Z" fill="#fff" stroke-width="0"/><path d="m219.38,114.9c-.61,4.1-1.2,8.05-1.95,12.05l-.16-.46c5.63,4.79,11.85,8.86,18.49,12.1,16.56,8.16,35.69,10.07,53.75,6.66,3.62-.67,7.2-1.54,10.76-2.55,0,0-.51.62-.51.62,0,0,2.15-13.13,2.15-13.14,0,0,.63.55.63.55-7.07,2.06-14.39,3.26-21.74,3.62-21.17,1.09-42.58-5.37-59.69-17.86-.64-.46-1.28-.88-1.73-1.58h0Zm-.36-.93c1.73.81,3.29,2.25,4.9,3.28,16.54,11.33,36.79,17.12,56.82,16.09,7.53-.36,15.02-1.63,22.24-3.79,0,0-.09.76-.09.77,0,0-1.61,13.21-1.61,13.21l-.05.44c-3.65,1.45-7.41,2.64-11.26,3.48-25.81,5.89-54.2-1.98-73.36-20.22,0,0-.21-.18-.21-.18,0,0,.05-.28.05-.28.76-4.29,1.68-8.62,2.57-12.8h0Z" stroke-width="0"/><path d="m340.04,120.84c-5.99-8.7-18.99-8.34-20.33-8.28-5.06.21-9,1.84-11.29,3.01,5.24-18.56,10.49-37.13,15.74-55.69.84-2.06,2.07-5.88,1.08-10.07-2.98-12.5-23.24-17.35-41.49-21.72-2.3-.55-14.28-3.34-29.92-2.88-13.94.42-18.11,3.03-20.33,6.03-2.58,3.47-2.72,7.7-2.5,10.42-3.6,18.6-7.2,37.21-10.81,55.81-.93-.92-9.32-8.98-20.95-7.13-10.72,1.71-17.93,10.83-19.58,19.2-2.38,12.09,6.91,22.24,12.05,27.86,22.13,24.2,56.32,26.32,71.14,27.03,23.92,1.16,70.56-2.2,78.7-24.39.24-.66,3.96-11.27-1.51-19.2Zm-100.14,1.13c-4.52-2.39-9.04-4.77-13.55-7.16,4.39-22.33,8.78-44.67,13.17-67.01,5.4,2.39,10.8,4.77,16.19,7.16-5.27,22.33-10.54,44.67-15.81,67.01Zm35.76-68.14c.16-1.07,33.92,1.45,38.4-5.93.25-.41,1-1.83,2.26-1.98,2.45-.29,5.97,4.37,5.03,7.03-.83,2.38-5.15,2.86-9.54,3.14-18.79,1.18-36.26-1.49-36.15-2.26Z" stroke-width="0"/><path d="m259.38,163.79c5.36.7,9.03,6.69,6.6,11.75-1.35,3.12-3.75,5.3-6.42,7.11-6.41,4.2-17.11,4.11-22.67-1.44-2.04-2.27-1.73-5.48-.32-7.91,3.02-6.05,10.8-7.13,16.41-3.96,0,0,.02.01.02.01,0,0,1.16.88,1.16.88-1.22,3.52-2.64,7.29-4.02,10.77-.44,1.05-.73,2.15-1.46,3.12l-.96-.28c-.1-1.21.23-2.29.42-3.42.6-3.26,1.31-6.83,2.03-10.04,0,0,.75,2.06.75,2.06-2.69-2.48-7.17-3.25-10.36-1.18-2.02,1.29-3.72,3.95-3.42,6.37.83,3.87,5.77,4.7,9.25,4.81,3.9-.02,7.65-.98,10.7-3.35,2.6-2,5.4-4.75,5.16-8.18-.12-1.92-1.46-4.07-3.34-6.26l.48-.88h0Z" stroke-width="0"/><path d="m233.57,211.12c.26-4.82-.33-9.61-2.16-13.86-3.12-6.43-7.39-12.54-10.76-18.9-2.41-3.78-2.98-8.69.11-12.35,2.55-3,5.65-5.34,9.42-6.59,0,0,.54.84.54.84-.82,1.01-2.76,3.12-3.51,4.11-2.27,2.85-5.44,5.56-4.38,9.16.54,1.97,3.75,7.43,4.7,9.39,5.18,9.63,9.73,16.94,7.02,28.33,0,0-.99-.14-.99-.14h0Z" stroke-width="0"/><path d="m207.53,150.46c-3.12,3.36-5.95,7.23-5.18,11.77.97,2.93,3.24,5.52,4.1,8.6,1.17,3.25,1.67,7.1,1.46,10.49-.07,1.68-.07,3,.21,4.13.75,2.64,2.42,4.47,4.73,6.13,2.48,1.77,5.12,3.65,7.85,5.11,2.88,1.54,6.3,2.92,8.71,5.38,2.53,2.52,4.29,5.64,5.11,8.92,0,0-.92.39-.92.39-1.73-2.73-3.81-5.12-6.29-6.82-2.59-1.84-5.55-2.49-8.56-3.75-3.19-1.31-6.03-3.07-8.93-4.99-1.43-.97-2.96-2.17-4.21-3.76-1.87-2.33-3.05-5.38-3.02-8.37.16-4.01.5-7.67-.64-11.51-.54-2.34-1.54-4.31-2.55-6.56-1.18-2.62-.84-6.05.37-8.52,1.61-3.35,4.3-5.69,7.12-7.44,0,0,.63.78.63.78h0Z" stroke-width="0"/><path d="m211.96,152.44c.79,9.13,5,17.83,11.57,24.13,0,0-2.09,2.03-2.09,2.03-6.52-7.07-10.41-16.53-10.48-26.11,0,0,1-.05,1-.05h0Z" stroke-width="0"/><path d="m278.01,164.67c-1.31,7.95-4.81,15.68-10.02,21.96-3.52,4.16-8,7.34-12.17,10.64-9.02,7.2-17.78,14.91-25.12,23.83-7.02,9.27-14.66,17.45-9.36,29.52,1.97,4.64,5.35,8.68,9.08,12.12,0,0-.6.8-.6.8-4.65-2.82-8.73-6.63-11.5-11.4-6.63-11.58-1.68-21.61,5.44-31.32,6.07-8.92,14.05-16.36,22.37-23.12,3.61-2.96,9-6.61,12.87-9.29,4.21-2.9,7.71-6.31,10.69-10.46,3.04-4.08,5.41-8.69,7.36-13.55,0,0,.96.27.96.27h0Z" stroke-width="0"/><path d="m294.06,163.46c-.4,5.59-2.56,11.09-6.31,15.35-2.74,3.15-6,5.01-7.57,8.65-.46,1.05-.82,2.21-.95,3.27-.13,2.45.35,5.92-.91,8.51-2.24,5.72-6.73,10.43-12.63,12.46-2.73.94-5.62.83-8.24,1.36-2.34.44-4.46,1.56-6.67,2.95-2.99,1.86-5.14,4.76-4.94,8.41.02,1.24.16,2.69.04,4.22-.93,11.14-11.72,9.48-14.98,18.84-1.82,4.91-1.32,10.45-.3,15.55,0,0-.97.24-.97.24-1.48-5.31-2.3-11.01-.66-16.45.84-2.76,2.47-5.32,4.63-7.25,4.16-3.54,8.93-5.13,8.98-11.12.03-2.66-.77-5.76.27-8.56.53-1.53,1.3-2.9,2.3-4.11,3.04-3.38,6.82-5.66,11.34-6.91,2.64-.68,5.3-.62,7.69-1.53,2.1-.77,4.09-2.23,5.69-3.95,2.25-2.5,4.3-5.71,4.66-9.07-.07-2.88.47-6.21,2.01-8.71,1.97-3.84,6.24-6.24,9.08-8.86,3.76-3.42,6.29-8.24,7.44-13.43,0,0,.99.14.99.14h0Z" stroke-width="0"/><path d="m204.12,170.05c-3.19,9.74-5.77,19.58-7.93,29.55-1.76,8.53-4.24,17.02-2.87,25.66,2.57,15.35,13.44,29.64,28.48,34.47,12.69,4.25,31.14,3.13,43.38-2.27,24.35-10.17,31.36-39.96,24.93-63.63-1.34-4.87-3.27-9.6-5.67-14.08,0,0,.87-.5.87-.5,5.39,8.8,8.72,18.97,9.37,29.39,2,29.08-13.32,52.54-42.92,57.45-10.51,1.61-21.34,2.03-31.62-1.28-17.11-5.17-29.39-21.4-31.78-38.84-1.2-9.29,1.74-18.56,4.18-27.29,2.79-9.9,6.27-19.68,10.66-28.99,0,0,.93.37.93.37h0Z" stroke-width="0"/><path d="m237.48,178.91c-.52,7.85-1.02,15.71-2.87,23.39,0,0-1-.1-1-.1-.22-3.97.14-7.88.5-11.79.37-3.91.82-7.81,1.43-11.7l1.94.2h0Z" stroke-width="0"/><path d="m263.08,163.99c5.81,2.26,10.21,9.17,8.29,15.42,0,0-.99-.12-.99-.12-.14-5.83-2.77-11.19-7.76-14.42,0,0,.47-.89.47-.89h0Z" stroke-width="0"/><path d="m196.05,240.54c-5.7,10.7-5.53,23.24.6,33.67,1.92,3.44,4.29,6.69,6.96,9.73,0,0-.82.31-.82.31-.02-2.44.41-4.89,1.15-7.25,2.24-7.02,7.52-13.34,14.5-15.96,0,0,.5.87.5.87-7.28,5.79-12.77,13.43-15.16,22.48,0,0-.21.72-.21.72l-.61-.41c-10.52-7.14-16.83-20.93-13.48-33.5,1.06-4.15,3.04-8.02,5.73-11.21l.83.55h0Z" stroke-width="0"/><path d="m238.74,264.55c5.75,8.8,7.44,20.09,5.14,30.3,0,.01-.69-.55-.69-.54,3.88-2.2,7.55-4.65,10.89-7.46,6.68-5.59,11.99-12.67,15.75-20.52,1.89-3.94,3.42-8.07,4.74-12.35,0,0,.98.18.98.18-.91,13.76-8.44,27.01-19.71,34.98-3.98,2.83-8.39,4.99-13.03,6.33,0,0,.09-.78.09-.78.93-7.58.17-15.29-2.27-22.52-.77-2.42-1.73-4.77-2.76-7.12l.88-.48h0Z" stroke-width="0"/><path d="m218.7,261.47c-3.58,1.34-3.56,9.15-3.55,9.86.06,4.71,2.02,8.22,3.11,9.88,1.26-.45,3.89-1.2,7.2-.71,3.54.53,5.96,2.2,7.01,3.03,1.2-1.83,2.84-4.77,3.86-8.68.91-3.47,2.13-8.12,0-10.08-1.85-1.7-4.13.53-9.32-.51-4.91-.98-6.1-3.62-8.31-2.8Z" stroke-width="0"/><path d="m218.87,261.94c-1.52.6-2.21,2.41-2.64,3.93-1.33,5.09-.63,10.7,2.33,15.14,0,0-.44-.15-.44-.15,4.86-1.74,10.54-.88,14.61,2.34,0,0-.63.1-.63.1,2.57-3.97,4.12-8.64,4.68-13.31.11-1.82.08-3.76-1.32-4.67-.9-.38-1.72-.02-2.84.11-3.31.65-6.97-.12-9.83-1.9-1.42-.82-2.71-2.08-3.93-1.59h0Zm-.35-.94c1.74-.72,3.42.69,4.92,1.27,2.83,1.23,5.83,1.39,8.87.98.78-.1,1.6-.24,2.65-.14,3.3.47,3.6,4.47,2.99,7.03-.95,4.81-2.36,9.55-5.13,13.63,0,0-.26.4-.26.4l-.37-.29c-3.8-3.07-9.22-4.03-13.82-2.32,0,0-.27.1-.27.1,0,0-.16-.25-.16-.25-3.13-4.56-3.95-10.42-2.62-15.78.49-1.81,1.27-3.84,3.19-4.63h0Z" stroke-width="0"/><path d="m217.97,283.47c-5.55,18.64-11.11,37.27-16.66,55.91l14.68,29.36c7.62-8.56,15.25-17.13,22.87-25.69-2.4-19.48-4.8-38.96-7.2-58.45-1.61-.74-4.31-1.73-7.76-1.84-2.44-.08-4.48.31-5.93.71Z" stroke-width="0"/><path d="m218.67,282.54c-5.2,19.23-10.63,38.14-16.25,57.17,0,0-.07-.85-.07-.85,3.62,7.04,7.32,14.98,10.64,22.21,1.16,2.48,2.29,4.97,3.49,7.43,0,0-.89-.12-.89-.12,6.8-7.22,15.85-18.47,22.28-26.22,0,0-.33,1.04-.33,1.04-1.28-8.4-2.67-20.65-3.72-29.21-1.1-9.75-2.24-19.5-3.28-29.26l.64.88c-3.75-1.8-8.1-2.33-12.17-1.46,0,0-.41.09-.41.09-.24.06-.02.01,0-.13l.06-1.58h0Zm-.88.05c4.9-1.48,10.28-.93,14.9,1.24,1.4,9.93,2.69,19.88,4.01,29.82,1.05,8.88,2.78,21.09,3.54,29.88-7.42,7.66-17.53,18.15-24.36,26.18-5.16-9.95-10.95-20.12-15.81-30.23,5.71-18.99,11.59-38.11,17.72-56.88h0Z" stroke-width="0"/><path d="m200.94,175.93c-5.89-14.43-21.78-24.42-37.08-21.59-7.12,1.35-14.27,5.36-18.22,11.48-6.13,10.07-2.62,22.72,1.07,33.15,1.64,4.02,1.93,8.61,1.11,12.88-.94,4.13-2.46,7.75-3.48,11.76-1.67,7.49-4.18,15.28-2.96,22.99,2.17,13.18,9.03,18.9,21.69,22.25,0,0-.46.35-.46.35,3.36-11.13,11.45-20.75,21.92-25.84,3.48-1.7,7.2-2.9,11.01-3.59l.18.98c-3.72.67-7.35,1.84-10.75,3.5-10.29,5-18.22,14.49-21.46,25.44-8.73,3.47-18.64-2.18-22.92-10.02-2.23-3.87-3.42-8.17-3.97-12.38-1.08-8.5,1.98-16.66,4.2-24.7,1.61-5.66,4.68-11,4.06-16.99-.21-4-2.4-7.39-3.5-11.21-1.9-6.03-3.72-11.97-3.6-18.49-.29-19.07,21.29-30.28,38.21-25.58,12.35,3.02,22.76,13.16,25.89,25.29,0,0-.95.32-.95.32h0Z" stroke-width="0"/><path d="m191.64,229.76c-8.16,3.33-19.87,7.12-33.43,8.16-11.38.87-18.69-.6-21.08-1.13-4.11-.91-7.44-2.08-9.79-3.01.88-1.47,1.84-3.36,2.64-5.65.85-2.43,1.28-4.63,1.51-6.4,7.18,1.91,17.57,3.84,30.12,3.39,12.09-.44,22-2.94,28.9-5.26.38,3.3.76,6.6,1.14,9.9Z" stroke="#000" stroke-miterlimit="10"/><path d="m98.23,187.18c-1.76-9.52-.6-20.56,4.88-28.75,3.32-4.39,12.1-11.04,16.56-4.8,2,3.38,2.39,7.7,1.24,11.39-2.58,6.82-1.51,14.2.79,20.93.82,2.28,2.29,4.34,3,6.72,3.39,10.23,1.88,21.05-8.39,26.46,0,0-.02,0-.02,0l.18-.68c2.61,4.26,1.15,10.18-3.01,12.86-4.01,2.86-9.46,2.39-13.69.31,0,0,.44-.9.44-.9,3.91,1.93,9,2.39,12.67-.23,3.95-2.57,5.1-8.04,2.5-11.96,0,0,.41-.28.41-.28,0,0,.02-.01.02-.01,3.99-2.61,7.1-6.52,8.11-11.07,1.19-5.59.08-11.91-2.45-17.14-1.84-3.27-2.7-7.03-3.42-10.69-1.02-4.9-.59-10.18,1.1-14.88.78-2.27.68-4.48.22-6.79-1.58-9.53-11.6-2.89-15.01,1.66-2.83,3.81-4.14,8.66-5.1,13.25-.87,4.73-.84,9.62-.04,14.39l-.98.18h0Z" stroke-width="0"/><path d="m77.2,187.27c-2.06,2.44-1.56,6.99.77,9.31,2.7,2.58,6.61,4.43,10.11,5.86,5.62,2.1,11.78,2.32,17.68,1.53,2.59-.43,6.06-.8,6.84-3.76.65-2.57-.27-5.65-2.54-7.17-6.8-3.92-14.66-5.99-22.5-6.74-1.99-.21-3.98-.45-5.87-.45-1.68,0-3.39.19-4.49,1.43h0Zm-2.12-1.87c3.3-3.52,8.66-2.19,12.8-1.78,8.18.97,16.26,3.5,23.25,7.95,2.72,1.98,3.83,5.86,2.85,9.06-1,3.46-5.02,4.14-8.08,4.49-6.1.69-12.34.32-18.19-1.64-3.96-1.45-7.81-2.66-11.21-5.36-3.58-2.99-4.51-9.01-1.42-12.72h0Z" stroke-width="0"/><path d="m82.78,201.26c-2.4.21-4.75,1.32-5.56,3.29-1.17,2.91.42,7.01,2.85,9.11,2.84,2.3,6.52,2.96,10.15,3.41,4.6.26,10.29,1.73,14.32-.76,3.89-3.16,2.13-9.57-2.62-10.96,0,0,.28-.96.28-.96,5.84,1.3,8.13,9.38,3.35,13.25-2.29,1.71-5.15,1.91-7.84,1.93-6.47-.38-13.56-.17-18.99-4.29-4.27-3.36-6.04-11.99.03-14.43,1.32-.51,2.69-.7,4.04-.59v1h0Z" stroke-width="0"/><path d="m81.13,215.97c-7.04,3.79-4.21,12.76,3.04,14.01,5.84.75,14.89,2.75,19.41-1.95,3.8-4.02,1.3-8.23-3.71-8.97,0,0,.12-.99.12-.99,11.22,1.47,7.27,13.34-1.84,14.46-2.45.4-4.88.3-7.25.13-4.67-.4-10.49-.53-13.53-4.79-3.5-4.41-1.88-10.63,3.34-12.79,0,0,.42.91.42.91h0Z" stroke-width="0"/><path d="m123.48,210.32c3.17-1.46,7.99-.95,9.39,2.79.86,2.32.46,4.49.26,6.75-.3,3.11-.97,6.34-2.09,9.24-.74,2.02-1.47,4.27-3.14,5.83-5.27,5.16-14.95,4.78-14.99-4.13,0,0,1-.07,1-.07.44,4.2,3.51,6.62,7.6,5.31,1.76-.52,3.45-1.52,4.67-2.8,1.3-1.34,1.73-3.23,2.36-5,.65-1.9,1.11-3.78,1.41-5.72.27-2.71,1-5.82.27-8.38-1.04-2.5-3.82-2.62-6.55-2.83,0,0-.19-.98-.19-.98h0Z" stroke-width="0"/><path d="m181.1,124.26c-9.02,1.81-17.46,8.14-18.58,17.75-.41,3.15-.03,6.5,1.08,9.76l-.88.48c-2.25-2.85-3.62-6.49-3.92-10.32-1.02-11.99,9.92-23.41,22.03-22.39,0,0,.26,4.72.26,4.72h0Z" stroke-width="0"/><path d="m163.56,269.56c-6.72,20.26,2.67,41.32,22.77,48.83,6.25,2.33,13.15,3.07,19.97,2.25l.2.98c-6.8,1.93-14.23,1.8-21.17-.25-17.79-5.18-30.46-23.69-26.4-42.21.71-3.52,1.93-6.93,3.72-10,0,0,.91.41.91.41h0Z" stroke-width="0"/><path d="m236.41,320.42c16.82,9.91,41.05,6.11,51.56-11.01,5.69-9.13,6.14-20.44,4.05-30.82-1.91-9.93-7.22-19.13-14.54-26.42l.66-.75c16.71,12.99,24.16,38.96,14.23,58.26-7.62,14.87-26.17,22.08-42.08,18.29-5.25-1.24-10.22-3.5-14.44-6.72l.55-.83h0Z" stroke-width="0"/><path d="m287.9,186.08c5.12-9.96,15.23-17.28,26.35-19,15-2.99,28.9,4.75,33.18,19.71,2.35,7.9-.55,13.26-3.44,20.2-1.51,3.86-2.74,7.83-3.69,11.89-2.33,10.1-3.19,20.71-2.66,31.14.28,4.3,1.17,8.84.4,13.24-2.14,13.77-9.82,25.77-23.75,29.72-6.33,1.78-13.06,1.94-19.48.72,0,0,.16-.99.16-.99,6.27.71,12.68.12,18.62-1.91,12.47-4.3,18.95-15.47,20.42-28.08.57-6.25-1.37-12.59-1.19-18.92-.45-15.26,2.28-30.76,8.44-44.76,3.74-8.04-.66-17.17-7.04-22.42-5.34-4.15-12.49-5.13-19.17-4.25-6.06.65-11.76,2.65-16.9,6.08-3.43,2.26-6.57,5.06-9.43,8.21l-.83-.57h0Z" stroke-width="0"/><path d="m293.42,216.48c6.45-1.53,15.19-2.73,25.35-1.62,13.32,1.45,22.32,6.1,29.08,9.6,0,0,4.68,2.42,13.55,11.29.55.55,1.57,1.6,1.69,3.11.27,3.32-3.98,7.53-7.91,7.62-4.61.11-5.98-5.54-13.05-10.93-4.69-3.57-8.96-4.8-15.18-6.58-14.63-4.19-28.08-2.19-35.4-.53.62-3.99,1.24-7.98,1.86-11.97Z" stroke="#000" stroke-miterlimit="10"/><path d="m335.54,173.95c3.45-5.47,4.45-12.44,1.52-18.25-.85-1.82-2.03-3.51-3.34-5.08l3.24-3.37c8.52,6.95,7.99,20.85-.68,27.38,0,0-.73-.68-.73-.68h0Z" stroke-width="0"/><path d="m346.51,244.16c-2.33,7.66,3.64,14.43,11.46,13.58,7.15-1.32,12.89-7.92,14.83-14.72.95-3.41.57-7.32-2.04-9.87-2.48-2.43-6.14-3.85-9.64-3.25-7.01,1.19-12.83,7.48-14.6,14.26h0Zm-1.83-.43c2.04-7.5,8.34-14.28,16.2-15.48,3.99-.59,8.1,1.02,10.92,3.89,4.44,4.52,2.92,11.68-.17,16.5-3.04,4.85-7.65,9.16-13.52,10.11-8.58.93-15.96-6.34-13.43-15.02h0Z" stroke-width="0"/><path d="m395.29,246.2c12.61-18.54,25.22-37.08,37.84-55.62-1.04-.75-2.07-1.51-3.11-2.26-14.02,17.98-28.05,35.95-42.07,53.93,1.13.44,2.37,1,3.67,1.69,1.4.75,2.62,1.52,3.67,2.26Z" stroke="#000" stroke-miterlimit="10"/><path d="m373.88,239.2c10.13-1.57,20.82,3.53,26.29,12.2,3.11,4.64,6.28,10.42,4.36,16.19-.87,2.3-2.71,4.06-4.76,5.03,0,0-.5-.86-.5-.86,1.73-1.19,3.11-2.81,3.6-4.72,1.31-6.22-3.06-11.94-6.6-16.79-2.64-3.23-6.07-5.81-9.91-7.55-3.84-1.72-8.1-2.58-12.4-2.49l-.08-1h0Z" stroke-width="0"/><path d="m355.11,286.16c-4.7-1.69-10.17-5.2-10.5-10.78.24-3.77,2.04-7.08,3.52-10.44,1.24-2.6,2.64-5.11,4.22-7.51l.87.5c-1.27,2.53-2.48,5.09-3.57,7.68-1.19,3.19-2.85,6.39-3.13,9.73.41,4.83,5.03,7.73,9,9.9,0,0-.4.92-.4.92h0Z" stroke-width="0"/><path d="m356.04,276.69c6.44-4.04,19.98,2.01,14.1,10.36-.71.89-1.52,1.64-2.5,2.18,0,0,.07-.74.07-.74,2.05,1.68,4.39,2.84,6.85,3.19,9.38,1.88,12.87-7.46,9.72-15,6.1,8.06.77,19.85-10.12,17.18-3.11-.65-5.8-2.56-7.47-5.09,0,0,.34-.35.34-.35,2.59-2.79,3.53-6.6.05-8.98-3.16-2.36-7.05-3.3-11.05-2.76h0Z" stroke-width="0"/><path d="m394.16,265.68c8.81,3.39,10.06,17.53.11,20.39-2.86.87-5.95.58-8.49-.66l.31-.95c2.58.46,5.17.31,7.44-.55,8.04-2.9,6.62-13.75.63-18.23h0Z" stroke-width="0"/><path d="m361.93,276.18l-22.55,32.42c-1-.33-3.26-.91-5.65,0-4.16,1.59-6.53,6.88-5.22,8.75.06.09.13.15.21.23,1.1,1.08,2.8.92,3.61.9,2.89-.06,5.37,1.54,6.49,2.26,2.34,1.5,2.18,2.66,3.53,2.82,2.35.29,5.63-2.88,5.65-6.35.01-2-1.06-3.49-1.55-4.09,6.96-8.09,13.93-16.19,20.89-24.28.23-.18,3.42-2.68,3.11-6.21-.31-3.48-3.91-6.6-8.51-6.45Z" stroke="#000" stroke-miterlimit="10"/><path d="m340.41,322.45c-1.51,1.88-3.56,4.67-5.55,8.31-2.96,5.43-4.77,8.73-4.09,12.85.17,1.02,1.14,6.09,5.65,8.19,2.78,1.3,6.14,1.1,8.61-.28,2.5-1.4,3.91-3.76,6.21-8.47,1.35-2.77,1.95-5.14,4.24-6.21,1.37-.65,3.32-.81,4.8,0,4.15,2.27,2.72,11.12,2.54,12.14-.25,1.46-1.87,9.92-9.6,14.68-8.29,5.11-19.28,3.32-26.26-2.54-8.19-6.88-8.25-17.19-8.19-19.48.17-6.53,2.97-11.4,4.41-13.9,2.61-4.53,5.72-7.58,7.87-9.38,1.2.09,3.02.38,5.04,1.27,2.01.88,3.44,2.02,4.32,2.84Z" stroke="#000" stroke-miterlimit="10"/><path d="m339.38,308.6c.88.13,2.45.48,4.09,1.55,1.56,1.02,2.48,2.23,2.96,2.96" stroke="#000" stroke-miterlimit="10"/><path d="m335.8,173.8c13.39-2.29,27.3-1.75,40.1,3.16,0,0-1.98.16-1.98.16,5.93-4,11.07-9.07,14.83-15.13,1.26-2.02,2.38-4.19,3.75-6.39,2.64-4.42,6.88-8.01,11.19-10.62.5-.32,1.02-.66,1.31-.91.16-.12.15-.21.07.05-.07.26,0,.58.19.78-2.9-.92-6.55-.72-9.8-.88-4.91-.09-9.85-.08-14.78-.07-9.76.21-19.73-.57-29.1,2.61-4.67,1.45-9.18,3.43-13.44,5.86l-.38-.64c4.2-2.64,8.69-4.85,13.39-6.54,9.36-3.65,19.64-3.17,29.49-3.71,4.94-.17,9.87-.34,14.83-.42,3.5.05,7.17-.28,10.66.64,1.22.28,2.62,1.78,2.12,3.24-.54,1.58-1.67,2.03-2.67,2.81-4,2.66-7.52,5.58-9.92,9.74-2.39,4.22-4.8,8.96-8.05,12.74-3.52,4.31-7.83,7.86-12.42,10.9,0,0-.97-.52-.97-.52-8.59-4.81-18.5-7.23-28.36-7.15-3.32.06-6.64.46-9.85,1.27l-.2-.98h0Z" stroke-width="0"/><path d="m140.04,252.46c-16.55.72-26.65,6.65-37.27,19.01-3.35,3.82-6.06,7.66-9.77,11.38-1.94,1.89-4.16,3.56-6.47,4.87-2.05,1.25-4.51,2.14-6.34,3.56-.05.05-.07.08-.06.01,0-.07-.02-.25-.11-.34.62.34,4.55.36,5.72.45,5.06.15,10.15,1.31,14.93,2.82,7.17,2.03,14.84.78,21.47-2.49,0,0,2.36-1.09,2.37-1.1,0,0-1.16,2.4-1.16,2.4-2.1,4.32-4.02,8.75-5.52,13.24-1.58,4.54-2.62,9.2-4.29,13.75-1.67,5.02-4.84,9.97-6.2,14.89-.01.24-.04.41.06.5.06.07.59.06,1.08-.08,2.82-.88,5.43-2.36,8.3-3.4,2.03-.75,4.97-1.43,7.09-1.94,7-1.83,13.92-4.08,20.81-6.3,9.35-2.61,17-9.08,22.55-16.9,0,0,.81.58.81.58-2.87,3.95-6.19,7.59-10.05,10.62-3.8,3.11-8.3,5.35-12.93,6.81-6.9,2.33-13.77,4.69-20.77,6.74-2.35.7-4.72,1.17-6.86,2.06-2.2.89-4.32,1.99-6.59,3-1.57.74-4.45,1.81-5.46-.51-.43-1.19,0-2.35.28-3.38.81-2.41,1.69-4.6,2.37-6.92,2.24-6.93,3.52-14.12,6.55-20.81,2.08-4.48,4.48-8.74,7.14-12.88,0,0,1.2,1.3,1.2,1.3-7.01,3.12-15.14,4.3-22.61,2.12-4.82-1.51-9.54-2.88-14.6-2.83-1.95-.04-3.79.26-5.8.1-.92-.03-1.99-.87-1.74-1.95.25-1.13,1.28-1.81,1.92-2.42,1.45-1.21,2.99-2.36,4.3-3.65,3.71-3.42,5.64-7.51,8.62-11.64,4.69-6.28,10.17-11.95,16.79-16.37,8.71-6.01,20.2-7.66,30.34-5.33,0,0-.08,1-.08,1h0Z" stroke-width="0"/><path d="m114.08,306.78c6.36-19.75,24.32-34.83,44.74-38.12,0,0,.18.98.18.98-19.76,3.75-36.42,18.86-42.65,37.89,0,0-2.27-.76-2.27-.76h0Z" stroke-width="0"/><path d="m182.82,318.72c-1.18,13.47-2.35,26.95-3.53,40.42-.19.68-.61,2.5.28,4.24,1.6,3.1,6.33,3.81,8.75,2.26,2.35-1.5,2.47-5.1,2.54-6.78.32-7.99,1.29-20.61,2.63-37.25-.03,0-5.42-1.46-5.45-1.47-.02,0-5.22-1.41-5.24-1.41Z" stroke="#000" stroke-miterlimit="10"/><path d="m253.87,327.2c4.51,7.14,5.47,12.91,5.48,16.93.01,5.85.67,11.7.41,17.55-.04.8-.13,2.78,1.13,4.24,1.91,2.21,6.34,2.53,8.47.56,1.54-1.43,1.49-3.72,1.41-5.93-.33-9.1-.5-13.65-1.13-17.51-.65-4.03-1.45-9.77-1.96-16.88-1.53.4-3.27.75-5.19.98-3.31.39-6.24.31-8.62.06Z" stroke="#000" stroke-miterlimit="10"/><path d="m268.23,363.03c-4.8,0-9.6.48-14.3,1.4,0,0,.36-.29.36-.29-.58,1.79-1.02,3.69-1.01,5.51-.1,7.5,6.91,5.63,12.17,5.46,3.44-.4,7.87.01,10.67-1.93,2.77-2.27,2.03-6.74.97-9.89,0,0,.39.29.39.29-3.07-.38-6.16-.56-9.26-.56h0Zm0-1c3.22,0,6.44.2,9.64.6,1.53,2.75,2.61,6.18,1.61,9.39-1.88,5.69-9.04,5.19-13.86,5.62-6.58.46-14.72,1.12-14.02-8.06.24-2.18.92-4.19,1.91-6.07,4.85-.96,9.79-1.46,14.73-1.47h0Z" stroke-width="0"/><path d="m183.23,362.18h-9.01s.43-.27.43-.27c-1.15,2.96-2.44,6.47-.86,9.39.23.42.32.45.68.66.68.36,1.64.62,2.57.82,4.85.96,9.89,1.37,14.82,1.68,1.39.04,2.86.12,4.16-.2,1.94-.82,2.3-3.31,2.34-5.49-.02-1.92-.39-3.9-.9-5.79,0,0,.41.32.41.32-4.86-.61-9.74-.98-14.63-1.13h0Zm.03-1c5.02.15,10.04.54,15.02,1.17.87,2.02,1.45,4.12,1.69,6.34.27,2.74-.34,6.4-3.29,7.55-3.63.93-7.36.32-11,.1-4.18-.48-8.41-.62-12.29-2.53-2.13-1.32-2.39-4.34-1.98-6.54.42-2.25,1.4-4.22,2.51-6.09,0,0,.29,0,.29,0h9.06Z" stroke-width="0"/><path d="m254.18,375.03c-6.35,6.79-9.52,16.34-7.49,25.49.01.03-.41-.38-.41-.37,14.58,1.75,29.18,3.64,43.71,5.77,14.01,1.6,29.01,5.55,42.12-1.33,5.78-2.85,12.11-7.42,12.35-14.21.07-4.51-2.54-9.58-6.77-11.66-2.99-1.49-6.39-1.73-9.79-1.73-5.23-.13-10.4.91-15.07,3.29-6.43,3.24-11.34,8.73-14.4,15.28,2.61-13.55,15.86-22.99,29.45-22.68,5.41-.18,11.52.82,15.55,4.88,6.65,6.78,7.09,17.18.09,23.88-5.75,5.44-12.93,8.74-20.63,10.13-11.24,1.49-22.45-1.06-33.39-2.8-12.87-2.39-31.03-5.46-43.71-7.9-2.89-9.44.29-20.26,7.69-26.76,0,0,.7.71.7.71h0Z" stroke-width="0"/><path d="m277.82,372.48c5.43-1.04,11.73,1.83,13.99,7.02,0,0-.86.52-.86.52-3.21-4.22-8-5.87-13.11-6.53,0,0-.02-1-.02-1h0Z" stroke-width="0"/><path d="m280.37,387.09c5.59-9.68,19.96-13.66,29.31-7.07,0,0-.38.92-.38.92-10.65-1.82-20.24-.76-28.92,6.14h0Z" stroke-width="0"/><path d="m246.7,400.59l1.31,7.57-.69-.82c7.68,2.35,15.68,3.73,23.75,4.1.02,0-.51.48-.51.48,0,0,.3-7.45.3-7.45,0,0,1,.04,1,.04,0,0-.3,7.45-.3,7.45,0,0-.02.49-.02.49,0,0-.49,0-.49,0-8.16-.06-16.33-1.15-24.25-3.25,0,0-.66-.17-.66-.17l-.03-.64s-.39-7.67-.39-7.67l.99-.11h0Z" stroke-width="0"/><path d="m173.12,372.63c-6.07,1.24-11.1,4.9-13.98,10.41,0,0-.93-.36-.93-.36,1.59-6.44,8.17-11.35,14.82-11.05,0,0,.08,1,.08,1h0Z" stroke-width="0"/><path d="m142.05,383.01c10.29-4.06,22.71-1.49,31.31,5.21-7.33-3.2-15.17-4.84-23.14-4.66-2.62.01-5.24.22-7.93.42,0,0-.24-.97-.24-.97h0Z" stroke-width="0"/><path d="m155.29,398.67c-4.67-8.2-11.96-14.49-20.71-17.5-5.01-1.78-10.58-2.91-15.71-1.58-3.29.81-6.55,2.62-8.99,4.93-8.4,7.57.7,17.77,8.09,22.06,16.3,9.16,39.49,2.93,56.37-2.57,11-3.03,22.34-4.72,33.71-5.27.05-.02-.45.38-.44.38.72-4.64.14-9.38-1.74-13.53-1.91-4.23-5.06-7.66-8.75-10.48,0,0,.49-.87.49-.87,9.54,3.9,14.21,15.91,10.86,25.46-11.3,1.24-22.56,3.32-33.38,6.77-18.22,6.65-44.13,13.8-61.5,1.66-6.47-4.55-13.2-12.68-9.94-21.06,2.54-5.9,8.45-9.39,14.43-10.9,6.01-1.35,12.04.08,17.49,2.39,8.96,3.61,16.41,11.23,19.73,20.12h0Z" stroke-width="0"/><path d="m182.9,403.22s-.56,8.75-.56,8.75c0,0-.47-.53-.47-.53,8.83.45,17.73-1.4,25.58-5.33.02-.01-.47.72-.47.72,0,0,.62-7.61.62-7.61l1,.04s.05,7.64.05,7.64v.5c-8.32,4.02-17.69,5.76-26.84,5.05,0,0-.5-.03-.5-.03l.03-.5.56-8.75,1,.06h0Z" stroke-width="0"/><path d="m368.47,262.01c4.53-3.51,11.84.54,11.01,6.21-2.24-4.56-5.94-6.73-11.01-6.21h0Z" stroke-width="0"/><path d="m375.53,256.36c3.63-1.42,8.4,1.64,8.19,5.65-2.23-2.71-4.78-4.69-8.19-5.65h0Z" stroke-width="0"/><path d="m380.33,251.56c4.15-3.31,10.71,1.13,9.04,6.21-1.18-4.09-4.75-6.7-9.04-6.21h0Z" stroke-width="0"/><path d="m339.96,215.56c8.69,2.73,18.26,3.83,26.94.75,4.55-1.44,7.84-4.48,11.86-7.09,4.17-2.68,8.63-4.73,13.16-6.5,4.17-1.79,9.07-2.73,12.99-4.82.38-.23.39-.39.41-.38-.23-.74-1.45-1.45-2.21-1.95-3.98-2.33-27.13-14-31.68-16.41,0,0,1.63-3.12,1.63-3.12,0,0,25.49,13.02,25.49,13.02,3.3,1.86,7.29,3.09,9.76,6.29,1.31,1.82.51,4.46-1.28,5.52-4.43,2.57-9.18,3.29-13.76,5.28-6.77,2.53-12.55,5.95-18.3,10.3-10.58,7.17-24.47,6.49-36.14,2.78,0,0,1.15-3.67,1.15-3.67h0Z" stroke-width="0"/></svg>