<svg width="10" height="10" viewBox="0 0 10 10" fill="none" xmlns="http://www.w3.org/2000/svg">
<path d="M4.81632 0C3.50702 0 3.34385 0.00632222 2.83145 0.0279984C2.31694 0.0532872 1.96892 0.133068 1.66184 0.252286C1.34513 0.376322 1.07538 0.541001 0.808942 0.808942C0.5407 1.07538 0.374516 1.34513 0.252286 1.66184C0.133068 1.96892 0.0532872 2.31694 0.0279984 2.83145C0.00481693 3.34415 0 3.50702 0 4.81632C0 6.12562 0.00632222 6.2888 0.0279984 6.8012C0.0532872 7.3142 0.133068 7.66373 0.252286 7.97081C0.376322 8.28752 0.541001 8.55727 0.808942 8.8237C1.07538 9.09195 1.34513 9.25813 1.66184 9.38036C1.96892 9.49807 2.31845 9.57936 2.83145 9.60465C3.34415 9.62783 3.50702 9.63265 4.81632 9.63265C6.12562 9.63265 6.2888 9.62632 6.8012 9.60465C7.3142 9.57936 7.66373 9.49777 7.97081 9.38036C8.28752 9.25632 8.55727 9.09164 8.8237 8.8237C9.09195 8.55727 9.25813 8.28902 9.38036 7.97081C9.49807 7.66373 9.57936 7.3142 9.60465 6.8012C9.62783 6.28849 9.63264 6.12562 9.63264 4.81632C9.63264 3.50702 9.62632 3.34385 9.60465 2.83145C9.57936 2.31845 9.49777 1.96711 9.38036 1.66184C9.25632 1.34513 9.09164 1.07538 8.8237 0.808942C8.55727 0.5407 8.28902 0.374516 7.97081 0.252286C7.66373 0.133068 7.3142 0.0532872 6.8012 0.0279984C6.28849 0.00481693 6.12562 0 4.81632 0ZM4.81632 0.867046C6.10214 0.867046 6.25568 0.873369 6.76386 0.895045C7.23261 0.917022 7.48791 0.995297 7.6574 1.06153C7.8835 1.14914 8.04155 1.2527 8.21256 1.4219C8.38024 1.58959 8.48381 1.74945 8.57142 1.97554C8.63765 2.14504 8.71592 2.40033 8.7379 2.86908C8.75958 3.37727 8.7659 3.53111 8.7659 4.81662C8.7659 6.10214 8.75958 6.25598 8.73609 6.76417C8.71081 7.23291 8.63253 7.48821 8.5666 7.65771C8.47538 7.8838 8.37362 8.04186 8.20563 8.21286C8.03614 8.38055 7.87477 8.48411 7.65048 8.57172C7.48309 8.63795 7.22418 8.71622 6.75363 8.7382C6.24273 8.75988 6.09221 8.7662 4.80308 8.7662C3.51395 8.7662 3.36372 8.75988 2.85222 8.7364C2.38347 8.71111 2.12487 8.63283 1.95537 8.5669C1.72657 8.47568 1.56972 8.37392 1.40173 8.20593C1.23223 8.03644 1.12445 7.87507 1.04136 7.65078C0.973922 7.48339 0.896851 7.22448 0.871863 6.75393C0.854703 6.24906 0.846574 6.09251 0.846574 4.8094C0.846574 3.52689 0.854703 3.37004 0.871863 2.85884C0.896851 2.38829 0.973922 2.12998 1.04136 1.96199C1.12445 1.73289 1.23253 1.57634 1.40173 1.40684C1.56941 1.23915 1.72657 1.13077 1.95537 1.04587C2.12487 0.979943 2.37715 0.901668 2.84771 0.878186C3.3586 0.859821 3.50913 0.853198 4.79645 0.853198L4.81632 0.867046ZM4.81632 2.34434C3.44922 2.34434 2.34373 3.45133 2.34373 4.81692C2.34373 6.18403 3.45072 7.28951 4.81632 7.28951C6.18343 7.28951 7.28891 6.18252 7.28891 4.81692C7.28891 3.44982 6.18192 2.34434 4.81632 2.34434ZM4.81632 6.42247C3.9288 6.42247 3.21078 5.70444 3.21078 4.81692C3.21078 3.92941 3.9288 3.21138 4.81632 3.21138C5.70384 3.21138 6.42186 3.92941 6.42186 4.81692C6.42186 5.70444 5.70384 6.42247 4.81632 6.42247ZM7.96659 2.24559C7.96659 2.56561 7.70618 2.82392 7.38766 2.82392C7.06763 2.82392 6.80933 2.56531 6.80933 2.24559C6.80933 1.92737 7.06944 1.66846 7.38766 1.66846C7.70587 1.66846 7.96659 1.92737 7.96659 2.24559Z" fill="white"/>
</svg>
