<svg width="10" height="11" viewBox="0 0 10 11" fill="none" xmlns="http://www.w3.org/2000/svg">
<path d="M4.95669 0.00916444C5.54899 0 6.13789 0.00543078 6.72611 0C6.76175 0.692764 7.01089 1.39843 7.51798 1.88821C8.02407 2.39022 8.73991 2.62001 9.43641 2.69774V4.52011C8.7837 4.49872 8.12793 4.36295 7.53563 4.08191C7.27767 3.96515 7.03736 3.81478 6.80214 3.66102C6.79909 4.98342 6.80757 6.30412 6.79365 7.62108C6.75835 8.25377 6.54961 8.8834 6.18167 9.40475C5.58972 10.2727 4.56228 10.8385 3.50701 10.8561C2.85973 10.8931 2.21313 10.7166 1.66157 10.3915C0.747499 9.85245 0.104291 8.86575 0.0106101 7.80675C-0.000251474 7.58035 -0.00398515 7.3543 0.0051793 7.13333C0.086641 6.27221 0.512618 5.44843 1.17382 4.88804C1.92326 4.23533 2.9731 3.92442 3.95607 4.10839C3.96524 4.77875 3.93842 5.44843 3.93842 6.11879C3.48936 5.97352 2.96461 6.01425 2.57224 6.28681C2.28577 6.47247 2.0682 6.75691 1.95483 7.07868C1.86115 7.30813 1.88796 7.56304 1.89339 7.80675C2.00099 8.54941 2.71514 9.17361 3.47748 9.10606C3.98289 9.10063 4.46724 8.80737 4.73064 8.378C4.81583 8.22763 4.91121 8.07387 4.9163 7.89703C4.96077 7.08751 4.94312 6.28138 4.94855 5.47185C4.95228 3.64745 4.94312 1.82814 4.95703 0.00950387L4.95669 0.00916444Z" fill="white"/>
</svg>
